PathFileType	4	(X/Y/Z)	/Users/niels/Desktop/University/Third Semester/Perception and Action/Exam/Gymnastics Motion Tracking/Code for Gym Tracking/Analyzed Data/Webcam_Backflip/id1_5_trajectory_Sports2D/id1_5_trajectory_Sports2D_px_person00.trc
DataRate	CameraRate	NumFrames	NumMarkers	Units	OrigDataRate	OrigDataStartFrame	OrigNumFrames
29.71698113207547	29.71698113207547	10	22	m	29.71698113207547	13	106
Frame#	Time	Hip			RHip			RKnee			RAnkle			RBigToe			RSmallToe			RHeel			LHip			LKnee			LAnkle			LBigToe			LSmallToe			LHeel			Neck			Head			Nose			RShoulder			RElbow			RWrist			LShoulder			LElbow			LWrist		
		X1	Y1	Z1	X2	Y2	Z2	X3	Y3	Z3	X4	Y4	Z4	X5	Y5	Z5	X6	Y6	Z6	X7	Y7	Z7	X8	Y8	Z8	X9	Y9	Z9	X10	Y10	Z10	X11	Y11	Z11	X12	Y12	Z12	X13	Y13	Z13	X14	Y14	Z14	X15	Y15	Z15	X16	Y16	Z16	X17	Y17	Z17	X18	Y18	Z18	X19	Y19	Z19	X20	Y20	Z20	X21	Y21	Z21	X22	Y22	Z22
13	0.4374603174603174	0.9884893880970177	-0.6183080371941971	0.0	0.984039689873958	-0.6139110649264448	0.0	0.9932548935753059	-0.7343118980522478	0.0	0.9578415128683575	-0.8596622499348207	0.0	1.0025343319985893	-0.8844903503210417	0.0	0.9895662762054078	-0.8882897737453169	0.0	0.9449282256229216	-0.8783912905924522	0.0	0.9978028223513851	-0.6136023807556531	0.0	0.9957275720641139	-0.7323933422291957	0.0	0.9645913271079487	-0.8509441416648672	0.0	1.0068247352800594	-0.8756754724168636	0.0	1.0031380740733642	-0.8698943948850121	0.0	0.9452721916780017	-0.8678390460856805	0.0	0.9659513201804404	-0.4296383062823652	0.0	0.9607396066486881	-0.3447403368818101	0.0	0.9911160216551339	-0.38641259778293696	0.0	0.9590978847632469	-0.4553742879115	0.0	1.0334903990391668	-0.49772871999928464	0.0	1.1196940658396268	-0.4911327548412128	0.0	0.9677853097536613	-0.45379137141907017	0.0	1.0254145619514983	-0.5014715617807226	0.0	1.1032067823322396	-0.4924427347105855	0.0
14	0.47111111111111104	0.989747413586725	-0.6150514613081265	0.0	0.985158356149625	-0.6105070548160828	0.0	0.9929340863584717	-0.7308948848917879	0.0	0.9580748522339181	-0.8561447547214984	0.0	1.0031116126240582	-0.8813404435780415	0.0	0.9900180397892937	-0.8850465802748888	0.0	0.9447304443810989	-0.8755638955705276	0.0	0.9990203821249886	-0.6103242468742787	0.0	0.9959934849099462	-0.729089180671505	0.0	0.9647562312100532	-0.8474879088925246	0.0	1.0070925681428324	-0.8729368283409106	0.0	1.003679479612743	-0.8670541368038552	0.0	0.9457091607121828	-0.8647528044421666	0.0	0.9653613335863891	-0.4266700764266004	0.0	0.959397172905698	-0.3420642814290442	0.0	0.9897300687533063	-0.38385604915528054	0.0	0.9593433476737239	-0.4521254601850241	0.0	1.0364218798788942	-0.4912448267012262	0.0	1.1218410767843205	-0.48037553748648476	0.0	0.9671323618297286	-0.45062329684433855	0.0	1.0263914184120952	-0.4967936844280427	0.0	1.1046220232409907	-0.4830256189457468	0.0
15	0.5047619047619047	0.9909330086645797	-0.6117561012902526	0.0	0.9861309489738865	-0.6070570066543926	0.0	0.992567789602099	-0.727586918109611	0.0	0.9582107373838177	-0.8528631060606576	0.0	1.0036770817419502	-0.8782092680563326	0.0	0.9905634155995859	-0.8818517148077509	0.0	0.9444577356190793	-0.873005729641202	0.0	1.0003093514499164	-0.6069886875651247	0.0	0.9964366883767213	-0.7259436997081822	0.0	0.9649977128811549	-0.8441005275949272	0.0	1.0074572805739623	-0.8701929621038401	0.0	1.0042366349756287	-0.8642725893435479	0.0	0.9462393763965409	-0.86185892638081	0.0	0.9651919407452635	-0.4239204458030402	0.0	0.9584231290849499	-0.339580236557762	0.0	0.9888134468871085	-0.3816922060019693	0.0	0.9595745909551546	-0.44888870561647753	0.0	1.039434668525229	-0.48514957411753157	0.0	1.1238327247752067	-0.46960541892041274	0.0	0.9673352508182996	-0.44754559767395724	0.0	1.0287773530567246	-0.49167255674964816	0.0	1.107741925959363	-0.47338932679110085	0.0
16	0.5384126984126983	0.991967630851465	-0.6087528923172232	0.0	0.9870120378886559	-0.6038445645447016	0.0	0.9923374180571131	-0.7247206368348157	0.0	0.9583563546494543	-0.8500924524307015	0.0	1.00412098560025	-0.8754712344219785	0.0	0.9910872363968894	-0.8791021201523407	0.0	0.9442763030838313	-0.8708729136148143	0.0	1.0014887211062216	-0.6038521348813493	0.0	0.9969235790242925	-0.723235294858921	0.0	0.9653205293027516	-0.8412295434610484	0.0	1.007879587145843	-0.8678462050800432	0.0	1.0047673315688506	-0.8619600021085722	0.0	0.9468532798927541	-0.8594587742077301	0.0	0.9654413107210806	-0.4215326380171005	0.0	0.9578984012608376	-0.33739477095036036	0.0	0.9884360928363589	-0.3798662696907131	0.0	0.9598633884124085	-0.4459717934941768	0.0	1.0423195602844557	-0.4797802935795026	0.0	1.1256451579515698	-0.459609207120045	0.0	0.9680743070015103	-0.4447823713962885	0.0	1.0319349663064716	-0.486718124160291	0.0	1.1119701459392537	-0.46441782390501307	0.0
17	0.5720634920634919	0.9928229588485346	-0.6063250702574517	0.0	0.9878211132965523	-0.6011895373612395	0.0	0.9923766700855124	-0.7225487795228936	0.0	0.9585683957299717	-0.848033332648472	0.0	1.0043617839055954	-0.8734620651812246	0.0	0.9914599518243128	-0.8771400871906389	0.0	0.9442745537943055	-0.8692522518820465	0.0	1.0024467965226909	-0.6012226384670342	0.0	0.9974667083513541	-0.7211374296695066	0.0	0.9657181322243444	-0.8391949008438861	0.0	1.008276631209344	-0.8661951541441768	0.0	1.0052485527883015	-0.8604153332745004	0.0	0.9474860995072973	-0.8577520806569711	0.0	0.9660518749710078	-0.4195957409518575	0.0	0.9579537221284442	-0.33559169871651223	0.0	0.9886744739290876	-0.3783444881926635	0.0	0.9602822045812439	-0.4436447246479912	0.0	1.0449013787714205	-0.4755310317302607	0.0	1.1272560323057166	-0.45122314870967384	0.0	0.9689807940983418	-0.4425210211191695	0.0	1.0348930110377046	-0.48262005282175496	0.0	1.1159869585416693	-0.45693991373294296	0.0
18	0.6057142857142856	0.9935058776096886	-0.6046749492649454	0.0	0.9885471533866947	-0.5993464067412182	0.0	0.9927888828644181	-0.721169045976279	0.0	0.9588467380467166	-0.8467695366779932	0.0	1.0044089776294443	-0.8723770812169547	0.0	0.9916411544736112	-0.8761554231454034	0.0	0.9444431191267939	-0.8681686311333218	0.0	1.003154034580111	-0.5993460263249843	0.0	0.9981888090493288	-0.71970056216698	0.0	0.9661650951320204	-0.8380690174178393	0.0	1.0085721168352773	-0.8653802713939509	0.0	1.0056603327122058	-0.859742116134491	0.0	0.9480502775793692	-0.8567751013450117	0.0	0.9669205601215347	-0.4181895086444263	0.0	0.9587377204659814	-0.3342242523256988	0.0	0.9895588345794172	-0.37716078430155114	0.0	0.9608920211203321	-0.44208131529054057	0.0	1.0470402330950344	-0.4728055108290993	0.0	1.1286413093976957	-0.44526141181152523	0.0	0.9697281086694084	-0.4408923581442258	0.0	1.0366785649396453	-0.4800454063649191	0.0	1.1179959938936888	-0.45177697280178625	0.0
19	0.6393650793650792	0.9940117308171531	-0.6038939255656138	0.0	0.9891685298195559	-0.5984281197448121	0.0	0.9936964697892569	-0.7205204183726797	0.0	0.9591639343800319	-0.8462331962093016	0.0	1.0043515391829339	-0.8722114515823445	0.0	0.9917016221585304	-0.8761197918394951	0.0	0.944715576959136	-0.8675682869394582	0.0	1.0036263541429387	-0.5983259578586857	0.0	0.9992842597949346	-0.7188783240132127	0.0	0.966619942597122	-0.8376736594198467	0.0	1.0087660282857684	-0.865360673678755	0.0	1.0059944481776886	-0.8598464867561341	0.0	0.9484715134426929	-0.8563922187802063	0.0	0.967950589219149	-0.41739669355528186	0.0	0.9604415877247449	-0.3333407761131922	0.0	0.9910923654467596	-0.37643716938119526	0.0	0.9617309291308981	-0.4413460864268145	0.0	1.0486175574551786	-0.47194477829208004	0.0	1.1297883127311659	-0.44247227705832887	0.0	0.9701119349308672	-0.4399689077204528	0.0	1.0366214826559326	-0.4795196381666735	0.0	1.11603506780395	-0.4498182127078758	0.0
20	0.673015873015873	0.9943047553819432	-0.6039663700259151	0.0	0.989665500381521	-0.5984206964618077	0.0	0.9952578925440624	-0.7204886711146593	0.0	0.9595082724148029	-0.8462304767412241	0.0	1.0043068505033745	-0.8727765932496547	0.0	0.9917659992962363	-0.8767886236067092	0.0	0.9450297877800897	-0.867318095781926	0.0	1.0038827251122115	-0.5981452554258736	0.0	1.0009170816614033	-0.7186015492711534	0.0	0.9670419687505656	-0.8377272096589122	0.0	1.0089282374840236	-0.8659632158227286	0.0	1.0062670522969441	-0.8605236886942492	0.0	0.9487018817779818	-0.8563992746528332	0.0	0.969118224576617	-0.41728547690883394	0.0	0.9633132404314171	-0.33303632300646785	0.0	0.993313551579092	-0.376410001544467	0.0	0.9628134049646937	-0.4414135304679743	0.0	1.0495244074156436	-0.47313950238693764	0.0	1.1306944329661395	-0.44354122288925635	0.0	0.9700891729531108	-0.4397748454062764	0.0	1.0345498648392808	-0.48127814459399504	0.0	1.1083101725717786	-0.4520112271058624	0.0
21	0.7066666666666666	0.9943171457176124	-0.6048148603779594	0.0	0.9899770709542997	-0.5992520407375656	0.0	0.9975986777711233	-0.7210068725433059	0.0	0.9599109226264411	-0.8465406793150907	0.0	1.0043675434265942	-0.8738152930258174	0.0	0.9919370721746564	-0.8778185010978987	0.0	0.9453660878913204	-0.8672528768552628	0.0	1.0039063868147662	-0.5987529476547352	0.0	1.0030989662389895	-0.7188457091121344	0.0	0.967417242004487	-0.8380451015269571	0.0	1.0091452686086575	-0.8670096317772593	0.0	1.006504838424369	-0.8615854636064493	0.0	0.9487507871816482	-0.8566569159317007	0.0	0.970475356883171	-0.41789289692083065	0.0	0.9675961914257181	-0.33344203287913565	0.0	0.9962861768261329	-0.3773825848002718	0.0	0.9641429018020468	-0.44221141591781077	0.0	1.0496616257084876	-0.47638000354188254	0.0	1.131341784425398	-0.44905693751754955	0.0	0.9697572100561572	-0.4402982828002499	0.0	1.0308243986378887	-0.4851937842222499	0.0	1.093874898152827	-0.45925850005899815	0.0
22	0.7403174603174603	0.9939515031713305	-0.6063386451781116	0.0	0.9899667544241162	-0.6008438991747406	0.0	1.0006925828679814	-0.7220540899921148	0.0	0.9604298429712186	-0.8470058948815744	0.0	1.0045700820078176	-0.8751343520414403	0.0	0.9922439379609063	-0.8789489919148967	0.0	0.9457406671913952	-0.867244608401737	0.0	1.0036494624015269	-0.6001250352331786	0.0	1.0056675827149288	-0.7196492011519685	0.0	0.9677927399703776	-0.838616161344412	0.0	1.0094927916017766	-0.8683956785668638	0.0	1.0067431615737472	-0.8629267879259185	0.0	0.9487305485389866	-0.8571316514425134	0.0	0.9721060088753564	-0.41922178100932245	0.0	0.9734075175443007	-0.33466626585224807	0.0	1.0000288620583988	-0.3795832955391617	0.0	0.9657074132589123	-0.443656042502551	0.0	1.0489574349675872	-0.4815069473250749	0.0	1.1316299330946291	-0.459391508769883	0.0	0.9693371788891733	-0.4415074885128367	0.0	1.0262431694370644	-0.490838233510271	0.0	1.073928029280103	-0.47217141493068826	0.0
